<mxfile host="app.diagrams.net" modified="2022-07-21T04:58:26.058Z" agent="5.0 (Windows NT 10.0; Win64; x64) AppleWebKit/537.36 (KHTML, like Gecko) Chrome/103.0.0.0 Safari/537.36" etag="WX1G9nTiYknL3D1mPBP4" version="20.1.3" type="github">
  <diagram id="SrENm7EvfWLx1yhWD4gi" name="Página-1">
    <mxGraphModel dx="914" dy="507" grid="1" gridSize="10" guides="1" tooltips="1" connect="1" arrows="1" fold="1" page="1" pageScale="1" pageWidth="827" pageHeight="1169" math="0" shadow="0">
      <root>
        <mxCell id="0" />
        <mxCell id="1" parent="0" />
        <mxCell id="nUIEuGVdCKRFKDsfNLyE-2" value="&lt;font style=&quot;font-size: 24px;&quot;&gt;Início&lt;/font&gt;" style="ellipse;whiteSpace=wrap;html=1;" vertex="1" parent="1">
          <mxGeometry x="70" y="20" width="110" height="60" as="geometry" />
        </mxCell>
        <mxCell id="nUIEuGVdCKRFKDsfNLyE-8" value="&lt;font style=&quot;font-size: 12px;&quot;&gt;Informe o nome&lt;/font&gt;" style="shape=display;whiteSpace=wrap;html=1;fontSize=24;" vertex="1" parent="1">
          <mxGeometry x="60" y="120" width="100" height="40" as="geometry" />
        </mxCell>
        <mxCell id="nUIEuGVdCKRFKDsfNLyE-9" value="Usuário" style="html=1;strokeWidth=2;shape=manualInput;whiteSpace=wrap;rounded=1;size=26;arcSize=11;fontSize=12;" vertex="1" parent="1">
          <mxGeometry x="70" y="190" width="100" height="50" as="geometry" />
        </mxCell>
        <mxCell id="nUIEuGVdCKRFKDsfNLyE-11" value="" style="shape=singleArrow;direction=south;whiteSpace=wrap;html=1;fontSize=12;" vertex="1" parent="1">
          <mxGeometry x="105" y="80" width="30" height="30" as="geometry" />
        </mxCell>
        <mxCell id="nUIEuGVdCKRFKDsfNLyE-12" value="" style="shape=singleArrow;direction=south;whiteSpace=wrap;html=1;fontSize=12;" vertex="1" parent="1">
          <mxGeometry x="105" y="160" width="30" height="30" as="geometry" />
        </mxCell>
        <mxCell id="nUIEuGVdCKRFKDsfNLyE-13" value="" style="shape=singleArrow;direction=south;whiteSpace=wrap;html=1;fontSize=12;" vertex="1" parent="1">
          <mxGeometry x="105" y="240" width="30" height="30" as="geometry" />
        </mxCell>
        <mxCell id="nUIEuGVdCKRFKDsfNLyE-14" value="Telefone" style="html=1;strokeWidth=2;shape=manualInput;whiteSpace=wrap;rounded=1;size=26;arcSize=11;fontSize=12;" vertex="1" parent="1">
          <mxGeometry x="70" y="490" width="100" height="50" as="geometry" />
        </mxCell>
        <mxCell id="nUIEuGVdCKRFKDsfNLyE-15" value="" style="shape=singleArrow;direction=south;whiteSpace=wrap;html=1;fontSize=12;" vertex="1" parent="1">
          <mxGeometry x="107.5" y="470" width="30" height="30" as="geometry" />
        </mxCell>
        <mxCell id="nUIEuGVdCKRFKDsfNLyE-16" value="Não cadastrar" style="shape=display;whiteSpace=wrap;html=1;fontSize=12;" vertex="1" parent="1">
          <mxGeometry x="65" y="980" width="110" height="40" as="geometry" />
        </mxCell>
        <mxCell id="nUIEuGVdCKRFKDsfNLyE-17" value="" style="shape=singleArrow;direction=south;whiteSpace=wrap;html=1;fontSize=12;" vertex="1" parent="1">
          <mxGeometry x="105" y="550" width="25" height="20" as="geometry" />
        </mxCell>
        <mxCell id="nUIEuGVdCKRFKDsfNLyE-19" value="" style="shape=singleArrow;direction=south;whiteSpace=wrap;html=1;fontSize=12;" vertex="1" parent="1">
          <mxGeometry x="110" y="700" width="30" height="30" as="geometry" />
        </mxCell>
        <mxCell id="nUIEuGVdCKRFKDsfNLyE-20" value="Data atual - Data de nascimento" style="rounded=1;whiteSpace=wrap;html=1;absoluteArcSize=1;arcSize=14;strokeWidth=2;fontSize=12;" vertex="1" parent="1">
          <mxGeometry x="65" y="745" width="130" height="50" as="geometry" />
        </mxCell>
        <mxCell id="nUIEuGVdCKRFKDsfNLyE-21" value="Ano do Nascimento" style="html=1;strokeWidth=2;shape=manualInput;whiteSpace=wrap;rounded=1;size=26;arcSize=11;fontSize=12;" vertex="1" parent="1">
          <mxGeometry x="70" y="650" width="100" height="60" as="geometry" />
        </mxCell>
        <mxCell id="nUIEuGVdCKRFKDsfNLyE-22" value="" style="shape=singleArrow;direction=south;whiteSpace=wrap;html=1;fontSize=12;" vertex="1" parent="1">
          <mxGeometry x="115" y="610" width="30" height="30" as="geometry" />
        </mxCell>
        <mxCell id="nUIEuGVdCKRFKDsfNLyE-23" value="posterior a data&lt;br&gt;atual&lt;br&gt;" style="strokeWidth=2;html=1;shape=mxgraph.flowchart.decision;whiteSpace=wrap;fontSize=12;" vertex="1" parent="1">
          <mxGeometry x="470" y="745" width="100" height="90" as="geometry" />
        </mxCell>
        <mxCell id="nUIEuGVdCKRFKDsfNLyE-27" value="" style="shape=singleArrow;direction=south;whiteSpace=wrap;html=1;fontSize=12;" vertex="1" parent="1">
          <mxGeometry x="105" y="930" width="40" height="40" as="geometry" />
        </mxCell>
        <mxCell id="nUIEuGVdCKRFKDsfNLyE-28" value="Não" style="text;html=1;strokeColor=none;fillColor=none;align=center;verticalAlign=middle;whiteSpace=wrap;rounded=0;fontSize=12;" vertex="1" parent="1">
          <mxGeometry x="360" y="1020" width="60" height="30" as="geometry" />
        </mxCell>
        <mxCell id="nUIEuGVdCKRFKDsfNLyE-29" value="&lt;span style=&quot;font-size: 24px;&quot;&gt;Fim&lt;/span&gt;" style="ellipse;whiteSpace=wrap;html=1;" vertex="1" parent="1">
          <mxGeometry x="65" y="1080" width="110" height="50" as="geometry" />
        </mxCell>
        <mxCell id="nUIEuGVdCKRFKDsfNLyE-30" value="" style="shape=singleArrow;whiteSpace=wrap;html=1;fontSize=12;" vertex="1" parent="1">
          <mxGeometry x="590" y="760" width="60" height="60" as="geometry" />
        </mxCell>
        <mxCell id="nUIEuGVdCKRFKDsfNLyE-32" value="Cadastrar" style="shape=display;whiteSpace=wrap;html=1;fontSize=12;" vertex="1" parent="1">
          <mxGeometry x="260" y="870" width="100" height="40" as="geometry" />
        </mxCell>
        <mxCell id="nUIEuGVdCKRFKDsfNLyE-33" value="sim" style="text;html=1;strokeColor=none;fillColor=none;align=center;verticalAlign=middle;whiteSpace=wrap;rounded=0;fontSize=12;" vertex="1" parent="1">
          <mxGeometry x="180" y="850" width="60" height="30" as="geometry" />
        </mxCell>
        <mxCell id="nUIEuGVdCKRFKDsfNLyE-36" value="" style="shape=singleArrow;direction=south;whiteSpace=wrap;html=1;fontSize=12;" vertex="1" parent="1">
          <mxGeometry x="105" y="795" width="40" height="40" as="geometry" />
        </mxCell>
        <mxCell id="nUIEuGVdCKRFKDsfNLyE-37" value="Nascimento" style="shape=display;whiteSpace=wrap;html=1;fontSize=12;" vertex="1" parent="1">
          <mxGeometry x="70" y="580" width="100" height="40" as="geometry" />
        </mxCell>
        <mxCell id="nUIEuGVdCKRFKDsfNLyE-41" value="" style="shape=singleArrow;direction=south;whiteSpace=wrap;html=1;fontSize=12;" vertex="1" parent="1">
          <mxGeometry x="100" y="1030" width="40" height="40" as="geometry" />
        </mxCell>
        <mxCell id="nUIEuGVdCKRFKDsfNLyE-42" value="informe o contato" style="shape=display;whiteSpace=wrap;html=1;fontSize=12;" vertex="1" parent="1">
          <mxGeometry x="67.5" y="440" width="100" height="30" as="geometry" />
        </mxCell>
        <mxCell id="nUIEuGVdCKRFKDsfNLyE-43" value="Descrição" style="shape=display;whiteSpace=wrap;html=1;fontSize=12;" vertex="1" parent="1">
          <mxGeometry x="65" y="270" width="100" height="30" as="geometry" />
        </mxCell>
        <mxCell id="nUIEuGVdCKRFKDsfNLyE-44" value="&lt;font style=&quot;font-size: 11px;&quot;&gt;Participante&amp;nbsp;&lt;br&gt;ou palestrante&lt;/font&gt;" style="html=1;strokeWidth=2;shape=manualInput;whiteSpace=wrap;rounded=1;size=26;arcSize=11;fontSize=12;" vertex="1" parent="1">
          <mxGeometry x="67.5" y="330" width="112.5" height="70" as="geometry" />
        </mxCell>
        <mxCell id="nUIEuGVdCKRFKDsfNLyE-45" value="" style="shape=singleArrow;direction=south;whiteSpace=wrap;html=1;fontSize=12;" vertex="1" parent="1">
          <mxGeometry x="102.5" y="310" width="30" height="30" as="geometry" />
        </mxCell>
        <mxCell id="nUIEuGVdCKRFKDsfNLyE-46" value="" style="shape=singleArrow;direction=south;whiteSpace=wrap;html=1;fontSize=12;" vertex="1" parent="1">
          <mxGeometry x="105" y="410" width="30" height="30" as="geometry" />
        </mxCell>
        <mxCell id="nUIEuGVdCKRFKDsfNLyE-47" value="" style="shape=singleArrow;direction=south;whiteSpace=wrap;html=1;fontSize=12;" vertex="1" parent="1">
          <mxGeometry x="280" y="930" width="60" height="80" as="geometry" />
        </mxCell>
        <mxCell id="nUIEuGVdCKRFKDsfNLyE-48" value="Se for &lt;br&gt;participante" style="strokeWidth=2;html=1;shape=mxgraph.flowchart.decision;whiteSpace=wrap;fontSize=12;" vertex="1" parent="1">
          <mxGeometry x="260" y="1030" width="100" height="90" as="geometry" />
        </mxCell>
        <mxCell id="nUIEuGVdCKRFKDsfNLyE-49" value="" style="shape=singleArrow;direction=west;whiteSpace=wrap;html=1;fontSize=11;rotation=-15;" vertex="1" parent="1">
          <mxGeometry x="175" y="1070" width="85" height="50" as="geometry" />
        </mxCell>
        <mxCell id="nUIEuGVdCKRFKDsfNLyE-50" value="" style="shape=singleArrow;whiteSpace=wrap;html=1;fontSize=12;" vertex="1" parent="1">
          <mxGeometry x="370" y="1045" width="70" height="60" as="geometry" />
        </mxCell>
        <mxCell id="nUIEuGVdCKRFKDsfNLyE-51" value="sim" style="text;html=1;strokeColor=none;fillColor=none;align=center;verticalAlign=middle;whiteSpace=wrap;rounded=0;fontSize=12;" vertex="1" parent="1">
          <mxGeometry x="190" y="1040" width="60" height="30" as="geometry" />
        </mxCell>
        <mxCell id="nUIEuGVdCKRFKDsfNLyE-52" value="informar&amp;nbsp; Evento" style="shape=display;whiteSpace=wrap;html=1;fontSize=12;" vertex="1" parent="1">
          <mxGeometry x="450" y="1065" width="110" height="40" as="geometry" />
        </mxCell>
        <mxCell id="nUIEuGVdCKRFKDsfNLyE-55" value="" style="shape=singleArrow;direction=north;whiteSpace=wrap;html=1;fontSize=11;" vertex="1" parent="1">
          <mxGeometry x="495" y="985" width="60" height="70" as="geometry" />
        </mxCell>
        <mxCell id="nUIEuGVdCKRFKDsfNLyE-57" value="Data do evento" style="html=1;strokeWidth=2;shape=manualInput;whiteSpace=wrap;rounded=1;size=26;arcSize=11;fontSize=12;" vertex="1" parent="1">
          <mxGeometry x="470" y="910" width="100" height="60" as="geometry" />
        </mxCell>
        <mxCell id="nUIEuGVdCKRFKDsfNLyE-58" value="" style="shape=singleArrow;direction=north;whiteSpace=wrap;html=1;fontSize=11;" vertex="1" parent="1">
          <mxGeometry x="490" y="850" width="60" height="60" as="geometry" />
        </mxCell>
        <mxCell id="nUIEuGVdCKRFKDsfNLyE-60" value="Se &amp;gt;18" style="strokeWidth=2;html=1;shape=mxgraph.flowchart.decision;whiteSpace=wrap;fontSize=12;" vertex="1" parent="1">
          <mxGeometry x="80" y="840" width="100" height="90" as="geometry" />
        </mxCell>
        <mxCell id="nUIEuGVdCKRFKDsfNLyE-62" value="" style="shape=singleArrow;direction=north;whiteSpace=wrap;html=1;fontSize=11;" vertex="1" parent="1">
          <mxGeometry x="490" y="680" width="60" height="50" as="geometry" />
        </mxCell>
        <mxCell id="nUIEuGVdCKRFKDsfNLyE-63" value="Cadastrar evento" style="rounded=1;whiteSpace=wrap;html=1;absoluteArcSize=1;arcSize=14;strokeWidth=2;fontSize=12;" vertex="1" parent="1">
          <mxGeometry x="450" y="620" width="130" height="50" as="geometry" />
        </mxCell>
        <mxCell id="nUIEuGVdCKRFKDsfNLyE-64" value="" style="shape=singleArrow;direction=north;whiteSpace=wrap;html=1;fontSize=11;" vertex="1" parent="1">
          <mxGeometry x="485" y="550" width="60" height="50" as="geometry" />
        </mxCell>
        <mxCell id="nUIEuGVdCKRFKDsfNLyE-65" value="Se nº de &lt;br&gt;Cadastro&lt;br&gt;&amp;lt;100" style="strokeWidth=2;html=1;shape=mxgraph.flowchart.decision;whiteSpace=wrap;fontSize=12;" vertex="1" parent="1">
          <mxGeometry x="460" y="450" width="100" height="90" as="geometry" />
        </mxCell>
        <mxCell id="nUIEuGVdCKRFKDsfNLyE-66" value="&lt;span style=&quot;font-size: 24px;&quot;&gt;Fim&lt;/span&gt;" style="ellipse;whiteSpace=wrap;html=1;" vertex="1" parent="1">
          <mxGeometry x="645" y="350" width="110" height="50" as="geometry" />
        </mxCell>
        <mxCell id="nUIEuGVdCKRFKDsfNLyE-67" value="" style="shape=singleArrow;direction=north;whiteSpace=wrap;html=1;fontSize=11;" vertex="1" parent="1">
          <mxGeometry x="480" y="410" width="60" height="40" as="geometry" />
        </mxCell>
        <mxCell id="nUIEuGVdCKRFKDsfNLyE-72" value="sim" style="text;html=1;strokeColor=none;fillColor=none;align=center;verticalAlign=middle;whiteSpace=wrap;rounded=0;fontSize=12;" vertex="1" parent="1">
          <mxGeometry x="530" y="570" width="60" height="30" as="geometry" />
        </mxCell>
        <mxCell id="nUIEuGVdCKRFKDsfNLyE-73" value="sim" style="text;html=1;strokeColor=none;fillColor=none;align=center;verticalAlign=middle;whiteSpace=wrap;rounded=0;fontSize=12;" vertex="1" parent="1">
          <mxGeometry x="520" y="420" width="60" height="30" as="geometry" />
        </mxCell>
        <mxCell id="nUIEuGVdCKRFKDsfNLyE-74" value="cadastro invalido" style="shape=display;whiteSpace=wrap;html=1;fontSize=12;" vertex="1" parent="1">
          <mxGeometry x="670" y="770" width="100" height="40" as="geometry" />
        </mxCell>
        <mxCell id="nUIEuGVdCKRFKDsfNLyE-75" value="" style="shape=singleArrow;whiteSpace=wrap;html=1;fontSize=12;" vertex="1" parent="1">
          <mxGeometry x="190" y="860" width="60" height="60" as="geometry" />
        </mxCell>
        <mxCell id="nUIEuGVdCKRFKDsfNLyE-76" value="Não" style="text;html=1;strokeColor=none;fillColor=none;align=center;verticalAlign=middle;whiteSpace=wrap;rounded=0;fontSize=12;" vertex="1" parent="1">
          <mxGeometry x="580" y="745" width="60" height="30" as="geometry" />
        </mxCell>
        <mxCell id="nUIEuGVdCKRFKDsfNLyE-77" value="sim" style="text;html=1;strokeColor=none;fillColor=none;align=center;verticalAlign=middle;whiteSpace=wrap;rounded=0;fontSize=12;" vertex="1" parent="1">
          <mxGeometry x="430" y="690" width="60" height="30" as="geometry" />
        </mxCell>
        <mxCell id="nUIEuGVdCKRFKDsfNLyE-78" value="" style="shape=singleArrow;direction=south;whiteSpace=wrap;html=1;fontSize=12;" vertex="1" parent="1">
          <mxGeometry x="710" y="820" width="40" height="70" as="geometry" />
        </mxCell>
        <mxCell id="nUIEuGVdCKRFKDsfNLyE-79" value="trocar data" style="shape=display;whiteSpace=wrap;html=1;fontSize=12;" vertex="1" parent="1">
          <mxGeometry x="680" y="915" width="100" height="50" as="geometry" />
        </mxCell>
        <mxCell id="nUIEuGVdCKRFKDsfNLyE-80" value="" style="shape=singleArrow;direction=west;whiteSpace=wrap;html=1;fontSize=11;rotation=0;" vertex="1" parent="1">
          <mxGeometry x="585" y="925" width="85" height="50" as="geometry" />
        </mxCell>
        <mxCell id="nUIEuGVdCKRFKDsfNLyE-81" value="Informar quantidade de vagas" style="shape=display;whiteSpace=wrap;html=1;fontSize=12;" vertex="1" parent="1">
          <mxGeometry x="455" y="345" width="100" height="40" as="geometry" />
        </mxCell>
        <mxCell id="nUIEuGVdCKRFKDsfNLyE-82" value="" style="shape=singleArrow;whiteSpace=wrap;html=1;fontSize=12;" vertex="1" parent="1">
          <mxGeometry x="570" y="340" width="60" height="60" as="geometry" />
        </mxCell>
        <mxCell id="nUIEuGVdCKRFKDsfNLyE-83" value="Informar Quadro completo" style="shape=display;whiteSpace=wrap;html=1;fontSize=12;" vertex="1" parent="1">
          <mxGeometry x="660" y="485" width="100" height="40" as="geometry" />
        </mxCell>
        <mxCell id="nUIEuGVdCKRFKDsfNLyE-84" value="" style="shape=singleArrow;whiteSpace=wrap;html=1;fontSize=12;" vertex="1" parent="1">
          <mxGeometry x="570" y="470" width="60" height="60" as="geometry" />
        </mxCell>
        <mxCell id="nUIEuGVdCKRFKDsfNLyE-85" value="" style="shape=singleArrow;direction=north;whiteSpace=wrap;html=1;fontSize=11;" vertex="1" parent="1">
          <mxGeometry x="680" y="420" width="60" height="50" as="geometry" />
        </mxCell>
      </root>
    </mxGraphModel>
  </diagram>
</mxfile>
